<mxfile host="app.diagrams.net" modified="2021-09-23T01:41:00.401Z" agent="5.0 (Windows NT 10.0; Win64; x64) AppleWebKit/537.36 (KHTML, like Gecko) Chrome/93.0.4577.82 Safari/537.36" etag="XVjF95UA_A4tTDl5QNed" version="15.3.0" type="github">
  <diagram id="IcHb-Y-xAka0jkrHvOs7" name="Page-1">
    <mxGraphModel dx="1968" dy="450" grid="1" gridSize="10" guides="1" tooltips="1" connect="1" arrows="1" fold="1" page="1" pageScale="1" pageWidth="1100" pageHeight="850" math="0" shadow="0">
      <root>
        <mxCell id="0" />
        <mxCell id="1" parent="0" />
        <mxCell id="n_TOdqYRiLtdOjK_SjEj-1" value="" style="points=[[0.13,0.02,0],[0.5,0,0],[0.87,0.02,0],[0.885,0.4,0],[0.985,0.985,0],[0.5,1,0],[0.015,0.985,0],[0.115,0.4,0]];verticalLabelPosition=bottom;sketch=0;html=1;verticalAlign=top;aspect=fixed;align=center;pointerEvents=1;shape=mxgraph.cisco19.secure_endpoints;fillColor=#005073;strokeColor=none;" parent="1" vertex="1">
          <mxGeometry x="-807.3" y="810" width="135.71" height="95" as="geometry" />
        </mxCell>
        <mxCell id="llVI7Hf9OjRL6w-K2cts-1" value="" style="aspect=fixed;perimeter=ellipsePerimeter;html=1;align=center;shadow=0;dashed=0;spacingTop=3;image;image=img/lib/active_directory/internet_cloud.svg;" parent="1" vertex="1">
          <mxGeometry x="-820" y="570" width="161.12" height="101.5" as="geometry" />
        </mxCell>
        <mxCell id="llVI7Hf9OjRL6w-K2cts-2" value="" style="whiteSpace=wrap;html=1;aspect=fixed;fillColor=#dae8fc;strokeColor=#6c8ebf;" parent="1" vertex="1">
          <mxGeometry x="-650" y="300" width="1557.5" height="1557.5" as="geometry" />
        </mxCell>
        <mxCell id="llVI7Hf9OjRL6w-K2cts-3" value="" style="whiteSpace=wrap;html=1;aspect=fixed;fillColor=#f8cecc;strokeColor=#b85450;" parent="1" vertex="1">
          <mxGeometry x="-580" y="360" width="870" height="870" as="geometry" />
        </mxCell>
        <mxCell id="llVI7Hf9OjRL6w-K2cts-4" value="JM-HomeOffice" style="text;html=1;strokeColor=none;fillColor=none;align=center;verticalAlign=middle;whiteSpace=wrap;rounded=0;" parent="1" vertex="1">
          <mxGeometry x="-789.16" y="905" width="109.16" height="30" as="geometry" />
        </mxCell>
        <mxCell id="llVI7Hf9OjRL6w-K2cts-5" value="Internet" style="text;html=1;strokeColor=none;fillColor=none;align=center;verticalAlign=middle;whiteSpace=wrap;rounded=0;" parent="1" vertex="1">
          <mxGeometry x="-800" y="600" width="110" height="30" as="geometry" />
        </mxCell>
        <mxCell id="llVI7Hf9OjRL6w-K2cts-7" value="" style="endArrow=classic;startArrow=classic;html=1;" parent="1" edge="1">
          <mxGeometry width="50" height="50" relative="1" as="geometry">
            <mxPoint x="-740" y="820" as="sourcePoint" />
            <mxPoint x="-739.94" y="660" as="targetPoint" />
          </mxGeometry>
        </mxCell>
        <mxCell id="llVI7Hf9OjRL6w-K2cts-8" value="Resource Group&lt;br&gt;&lt;br&gt;RedTeam-RG" style="text;html=1;strokeColor=none;fillColor=none;align=center;verticalAlign=middle;whiteSpace=wrap;rounded=0;" parent="1" vertex="1">
          <mxGeometry x="-260" y="250" width="140" height="40" as="geometry" />
        </mxCell>
        <mxCell id="llVI7Hf9OjRL6w-K2cts-9" value="Virtual Network&lt;br&gt;&lt;br&gt;RedTeam-VM&lt;br&gt;&amp;nbsp;10.0.0.0/16" style="text;html=1;strokeColor=none;fillColor=none;align=center;verticalAlign=middle;whiteSpace=wrap;rounded=0;" parent="1" vertex="1">
          <mxGeometry x="-270" y="310" width="190" height="40" as="geometry" />
        </mxCell>
        <mxCell id="llVI7Hf9OjRL6w-K2cts-11" value="Virtual Machine&lt;br&gt;&lt;br&gt;RedTeam-Virtual Subnet&amp;nbsp; 10.0.0.0/24" style="text;html=1;strokeColor=none;fillColor=none;align=center;verticalAlign=middle;whiteSpace=wrap;rounded=0;" parent="1" vertex="1">
          <mxGeometry x="-260" y="370" width="180" height="40" as="geometry" />
        </mxCell>
        <mxCell id="llVI7Hf9OjRL6w-K2cts-12" value="" style="sketch=0;aspect=fixed;html=1;points=[];align=center;image;fontSize=12;image=img/lib/mscae/Network_Security_Groups_Classic.svg;" parent="1" vertex="1">
          <mxGeometry x="-500" y="540" width="133.2" height="180" as="geometry" />
        </mxCell>
        <mxCell id="llVI7Hf9OjRL6w-K2cts-15" value="" style="endArrow=none;html=1;entryX=0.015;entryY=0.476;entryDx=0;entryDy=0;entryPerimeter=0;" parent="1" target="llVI7Hf9OjRL6w-K2cts-12" edge="1">
          <mxGeometry width="50" height="50" relative="1" as="geometry">
            <mxPoint x="-670" y="626" as="sourcePoint" />
            <mxPoint x="-560" y="600" as="targetPoint" />
            <Array as="points">
              <mxPoint x="-600" y="626" />
            </Array>
          </mxGeometry>
        </mxCell>
        <mxCell id="llVI7Hf9OjRL6w-K2cts-16" value="Security Group&lt;br&gt;&lt;br&gt;RedTeam -NSG" style="text;html=1;strokeColor=none;fillColor=none;align=center;verticalAlign=middle;whiteSpace=wrap;rounded=0;" parent="1" vertex="1">
          <mxGeometry x="-540" y="490" width="190" height="60" as="geometry" />
        </mxCell>
        <mxCell id="llVI7Hf9OjRL6w-K2cts-18" value="" style="sketch=0;aspect=fixed;html=1;points=[];align=center;image;fontSize=12;image=img/lib/mscae/Virtual_Machine_2.svg;" parent="1" vertex="1">
          <mxGeometry x="-483.4" y="870" width="100" height="92" as="geometry" />
        </mxCell>
        <mxCell id="llVI7Hf9OjRL6w-K2cts-19" value="" style="endArrow=none;html=1;" parent="1" edge="1">
          <mxGeometry width="50" height="50" relative="1" as="geometry">
            <mxPoint x="-434" y="875" as="sourcePoint" />
            <mxPoint x="-433.79999999999995" y="815" as="targetPoint" />
            <Array as="points">
              <mxPoint x="-434" y="850" />
              <mxPoint x="-433.79999999999995" y="875" />
              <mxPoint x="-433.79999999999995" y="825" />
              <mxPoint x="-433.9" y="795" />
              <mxPoint x="-434" y="710" />
              <mxPoint x="-433.9" y="805" />
            </Array>
          </mxGeometry>
        </mxCell>
        <mxCell id="llVI7Hf9OjRL6w-K2cts-26" value="" style="whiteSpace=wrap;html=1;aspect=fixed;fillColor=#ffff88;strokeColor=#36393d;direction=east;" parent="1" vertex="1">
          <mxGeometry x="-230.9" y="660" width="470" height="470" as="geometry" />
        </mxCell>
        <mxCell id="llVI7Hf9OjRL6w-K2cts-28" value="" style="points=[];aspect=fixed;html=1;align=center;shadow=0;dashed=0;image;image=img/lib/allied_telesis/storage/Datacenter_Server_Half_Rack_ToR.svg;" parent="1" vertex="1">
          <mxGeometry x="-180" y="847.4" width="88.2" height="114.6" as="geometry" />
        </mxCell>
        <mxCell id="llVI7Hf9OjRL6w-K2cts-30" value="" style="points=[];aspect=fixed;html=1;align=center;shadow=0;dashed=0;image;image=img/lib/allied_telesis/storage/Datacenter_Server_Half_Rack_ToR.svg;" parent="1" vertex="1">
          <mxGeometry x="-50" y="847.4" width="88.2" height="114.6" as="geometry" />
        </mxCell>
        <mxCell id="llVI7Hf9OjRL6w-K2cts-31" value="" style="points=[];aspect=fixed;html=1;align=center;shadow=0;dashed=0;image;image=img/lib/allied_telesis/storage/Datacenter_Server_Half_Rack_ToR.svg;" parent="1" vertex="1">
          <mxGeometry x="90" y="847.4" width="88.2" height="114.6" as="geometry" />
        </mxCell>
        <mxCell id="llVI7Hf9OjRL6w-K2cts-33" value="" style="sketch=0;aspect=fixed;html=1;points=[];align=center;image;fontSize=12;image=img/lib/mscae/Load_Balancer_feature.svg;" parent="1" vertex="1">
          <mxGeometry x="-62.5" y="550" width="110" height="110" as="geometry" />
        </mxCell>
        <mxCell id="llVI7Hf9OjRL6w-K2cts-35" value="Load Balancer&lt;br&gt;&lt;br&gt;RedTeam-LB&lt;br&gt;52.191.0.184" style="text;html=1;strokeColor=none;fillColor=none;align=center;verticalAlign=middle;whiteSpace=wrap;rounded=0;" parent="1" vertex="1">
          <mxGeometry x="-45" y="500" width="125" height="40" as="geometry" />
        </mxCell>
        <mxCell id="llVI7Hf9OjRL6w-K2cts-36" value="Web1&lt;br&gt;10.0.0.5" style="text;html=1;strokeColor=none;fillColor=none;align=center;verticalAlign=middle;whiteSpace=wrap;rounded=0;" parent="1" vertex="1">
          <mxGeometry x="-165" y="1020" width="85" height="20" as="geometry" />
        </mxCell>
        <mxCell id="llVI7Hf9OjRL6w-K2cts-37" value="Web3&lt;br&gt;10.0..0.9" style="text;html=1;strokeColor=none;fillColor=none;align=center;verticalAlign=middle;whiteSpace=wrap;rounded=0;" parent="1" vertex="1">
          <mxGeometry x="90" y="1020" width="85" height="20" as="geometry" />
        </mxCell>
        <mxCell id="llVI7Hf9OjRL6w-K2cts-38" value="Web2&lt;br&gt;10.0.0.8" style="text;html=1;strokeColor=none;fillColor=none;align=center;verticalAlign=middle;whiteSpace=wrap;rounded=0;" parent="1" vertex="1">
          <mxGeometry x="-50" y="1020" width="85" height="20" as="geometry" />
        </mxCell>
        <mxCell id="llVI7Hf9OjRL6w-K2cts-39" value="" style="endArrow=none;html=1;" parent="1" edge="1">
          <mxGeometry width="50" height="50" relative="1" as="geometry">
            <mxPoint x="-140" y="1010" as="sourcePoint" />
            <mxPoint x="-210" y="1010" as="targetPoint" />
            <Array as="points">
              <mxPoint x="140" y="1010" />
              <mxPoint x="-450" y="1010" />
            </Array>
          </mxGeometry>
        </mxCell>
        <mxCell id="llVI7Hf9OjRL6w-K2cts-41" value="" style="endArrow=none;html=1;" parent="1" edge="1">
          <mxGeometry width="50" height="50" relative="1" as="geometry">
            <mxPoint x="-440" y="1010" as="sourcePoint" />
            <mxPoint x="-440" y="960" as="targetPoint" />
          </mxGeometry>
        </mxCell>
        <mxCell id="llVI7Hf9OjRL6w-K2cts-44" value="" style="endArrow=none;html=1;" parent="1" edge="1">
          <mxGeometry width="50" height="50" relative="1" as="geometry">
            <mxPoint x="133.7" y="1012" as="sourcePoint" />
            <mxPoint x="134" y="960" as="targetPoint" />
          </mxGeometry>
        </mxCell>
        <mxCell id="llVI7Hf9OjRL6w-K2cts-46" value="" style="endArrow=none;html=1;" parent="1" edge="1">
          <mxGeometry width="50" height="50" relative="1" as="geometry">
            <mxPoint x="-1" y="1010" as="sourcePoint" />
            <mxPoint x="-0.6999999999999886" y="972" as="targetPoint" />
            <Array as="points">
              <mxPoint x="-1" y="962" />
            </Array>
          </mxGeometry>
        </mxCell>
        <mxCell id="llVI7Hf9OjRL6w-K2cts-47" value="" style="endArrow=none;html=1;" parent="1" edge="1">
          <mxGeometry width="50" height="50" relative="1" as="geometry">
            <mxPoint x="-130" y="1010" as="sourcePoint" />
            <mxPoint x="-130" y="962" as="targetPoint" />
            <Array as="points">
              <mxPoint x="-130" y="962" />
            </Array>
          </mxGeometry>
        </mxCell>
        <mxCell id="llVI7Hf9OjRL6w-K2cts-48" value="DVWA" style="text;html=1;strokeColor=none;fillColor=none;align=center;verticalAlign=middle;whiteSpace=wrap;rounded=0;" parent="1" vertex="1">
          <mxGeometry x="-120" y="980" width="70" height="20" as="geometry" />
        </mxCell>
        <mxCell id="llVI7Hf9OjRL6w-K2cts-49" value="Containers" style="text;html=1;strokeColor=none;fillColor=none;align=center;verticalAlign=middle;whiteSpace=wrap;rounded=0;" parent="1" vertex="1">
          <mxGeometry x="20" y="980" width="95" height="20" as="geometry" />
        </mxCell>
        <mxCell id="llVI7Hf9OjRL6w-K2cts-50" value="Jump-box-RedTeam&lt;br&gt;Ansible&lt;br&gt;52.179.22.137&lt;br&gt;10.0.0.4" style="text;html=1;strokeColor=none;fillColor=none;align=center;verticalAlign=middle;whiteSpace=wrap;rounded=0;" parent="1" vertex="1">
          <mxGeometry x="-510" y="1040" width="150" height="20" as="geometry" />
        </mxCell>
        <mxCell id="llVI7Hf9OjRL6w-K2cts-51" value="SSH" style="text;html=1;strokeColor=none;fillColor=none;align=center;verticalAlign=middle;whiteSpace=wrap;rounded=0;" parent="1" vertex="1">
          <mxGeometry x="-350" y="980" width="80" height="20" as="geometry" />
        </mxCell>
        <mxCell id="llVI7Hf9OjRL6w-K2cts-52" value="SSH" style="text;html=1;strokeColor=none;fillColor=none;align=center;verticalAlign=middle;whiteSpace=wrap;rounded=0;" parent="1" vertex="1">
          <mxGeometry x="-440" y="780" width="50" height="20" as="geometry" />
        </mxCell>
        <mxCell id="llVI7Hf9OjRL6w-K2cts-53" value="" style="endArrow=none;html=1;" parent="1" edge="1">
          <mxGeometry width="50" height="50" relative="1" as="geometry">
            <mxPoint x="-372" y="614" as="sourcePoint" />
            <mxPoint x="-60" y="610" as="targetPoint" />
          </mxGeometry>
        </mxCell>
        <mxCell id="llVI7Hf9OjRL6w-K2cts-54" value="SSH&lt;br&gt;HTTP" style="text;html=1;strokeColor=none;fillColor=none;align=center;verticalAlign=middle;whiteSpace=wrap;rounded=0;" parent="1" vertex="1">
          <mxGeometry x="-740" y="720" width="70" height="20" as="geometry" />
        </mxCell>
        <mxCell id="llVI7Hf9OjRL6w-K2cts-55" value="HTTP(p 80)" style="text;html=1;strokeColor=none;fillColor=none;align=center;verticalAlign=middle;whiteSpace=wrap;rounded=0;" parent="1" vertex="1">
          <mxGeometry x="-260" y="580" width="90" height="20" as="geometry" />
        </mxCell>
        <mxCell id="llVI7Hf9OjRL6w-K2cts-56" value="" style="endArrow=classic;startArrow=classic;html=1;" parent="1" edge="1">
          <mxGeometry width="50" height="50" relative="1" as="geometry">
            <mxPoint x="-140" y="860" as="sourcePoint" />
            <mxPoint x="-45" y="610" as="targetPoint" />
          </mxGeometry>
        </mxCell>
        <mxCell id="llVI7Hf9OjRL6w-K2cts-57" value="" style="endArrow=classic;startArrow=classic;html=1;" parent="1" edge="1">
          <mxGeometry width="50" height="50" relative="1" as="geometry">
            <mxPoint x="-20" y="850" as="sourcePoint" />
            <mxPoint x="-10" y="647.4" as="targetPoint" />
          </mxGeometry>
        </mxCell>
        <mxCell id="llVI7Hf9OjRL6w-K2cts-58" value="" style="endArrow=classic;startArrow=classic;html=1;" parent="1" edge="1">
          <mxGeometry width="50" height="50" relative="1" as="geometry">
            <mxPoint x="120" y="860" as="sourcePoint" />
            <mxPoint x="35" y="610" as="targetPoint" />
          </mxGeometry>
        </mxCell>
        <mxCell id="llVI7Hf9OjRL6w-K2cts-59" value="" style="html=1;verticalLabelPosition=bottom;verticalAlign=top;outlineConnect=0;shadow=0;dashed=0;shape=mxgraph.rack.hpe_aruba.gateways_controllers.aruba_9012_10_port_gbe_gateway_back;" parent="1" vertex="1">
          <mxGeometry x="-130" y="1085" width="240" height="15" as="geometry" />
        </mxCell>
        <mxCell id="llVI7Hf9OjRL6w-K2cts-60" value="RedTeam-BackendPo" style="text;html=1;strokeColor=none;fillColor=none;align=center;verticalAlign=middle;whiteSpace=wrap;rounded=0;" parent="1" vertex="1">
          <mxGeometry x="-100" y="1100" width="180" height="20" as="geometry" />
        </mxCell>
        <mxCell id="llVI7Hf9OjRL6w-K2cts-61" value="Load Balancer Backend Pool" style="text;html=1;strokeColor=none;fillColor=none;align=center;verticalAlign=middle;whiteSpace=wrap;rounded=0;" parent="1" vertex="1">
          <mxGeometry x="-90" y="1060" width="180" height="20" as="geometry" />
        </mxCell>
        <mxCell id="E9d8_AmILumTyX3_b7Oe-2" value="" style="whiteSpace=wrap;html=1;aspect=fixed;" vertex="1" parent="1">
          <mxGeometry x="340" y="670" width="460" height="460" as="geometry" />
        </mxCell>
        <mxCell id="E9d8_AmILumTyX3_b7Oe-6" value="" style="points=[];aspect=fixed;html=1;align=center;shadow=0;dashed=0;image;image=img/lib/allied_telesis/storage/Datacenter_Server_Half_Rack_ToR.svg;" vertex="1" parent="1">
          <mxGeometry x="660" y="860.07" width="100" height="129.93" as="geometry" />
        </mxCell>
        <mxCell id="E9d8_AmILumTyX3_b7Oe-8" value="" style="sketch=0;aspect=fixed;html=1;points=[];align=center;image;fontSize=12;image=img/lib/mscae/Network_Security_Groups_Classic.svg;" vertex="1" parent="1">
          <mxGeometry x="440" y="845" width="81.4" height="110" as="geometry" />
        </mxCell>
        <mxCell id="E9d8_AmILumTyX3_b7Oe-9" value="Security Group&lt;br&gt;&lt;br&gt;RedTeam- WELK-NSG" style="text;html=1;strokeColor=none;fillColor=none;align=center;verticalAlign=middle;whiteSpace=wrap;rounded=0;" vertex="1" parent="1">
          <mxGeometry x="390" y="800" width="170" height="50" as="geometry" />
        </mxCell>
        <mxCell id="E9d8_AmILumTyX3_b7Oe-10" value="Virtual Network&lt;br&gt;&lt;br&gt;RedTeam-W-VM&lt;br&gt;10.1.0.0/16" style="text;html=1;strokeColor=none;fillColor=none;align=center;verticalAlign=middle;whiteSpace=wrap;rounded=0;" vertex="1" parent="1">
          <mxGeometry x="470" y="590" width="200" height="80" as="geometry" />
        </mxCell>
        <mxCell id="E9d8_AmILumTyX3_b7Oe-11" value="Virtual Machine&lt;br&gt;&lt;br&gt;RedTeam-W-VM&lt;br&gt;10.1.0.0/24" style="text;html=1;strokeColor=none;fillColor=none;align=center;verticalAlign=middle;whiteSpace=wrap;rounded=0;" vertex="1" parent="1">
          <mxGeometry x="460" y="680" width="210" height="60" as="geometry" />
        </mxCell>
        <mxCell id="E9d8_AmILumTyX3_b7Oe-12" value="ELK Server&lt;br&gt;52.156.130.49&lt;br&gt;10.1.0.4" style="text;html=1;strokeColor=none;fillColor=none;align=center;verticalAlign=middle;whiteSpace=wrap;rounded=0;" vertex="1" parent="1">
          <mxGeometry x="635" y="820.0699999999999" width="150" height="40" as="geometry" />
        </mxCell>
        <mxCell id="E9d8_AmILumTyX3_b7Oe-13" value="" style="endArrow=none;html=1;" edge="1" parent="1">
          <mxGeometry width="50" height="50" relative="1" as="geometry">
            <mxPoint x="520" y="913" as="sourcePoint" />
            <mxPoint x="660" y="913" as="targetPoint" />
            <Array as="points">
              <mxPoint x="580" y="913" />
            </Array>
          </mxGeometry>
        </mxCell>
        <mxCell id="E9d8_AmILumTyX3_b7Oe-14" value="HTTP" style="text;html=1;strokeColor=none;fillColor=none;align=center;verticalAlign=middle;whiteSpace=wrap;rounded=0;" vertex="1" parent="1">
          <mxGeometry x="535" y="870" width="100" height="40" as="geometry" />
        </mxCell>
        <mxCell id="E9d8_AmILumTyX3_b7Oe-15" value="" style="endArrow=none;html=1;" edge="1" parent="1">
          <mxGeometry width="50" height="50" relative="1" as="geometry">
            <mxPoint x="130" y="1010" as="sourcePoint" />
            <mxPoint x="710" y="1010" as="targetPoint" />
          </mxGeometry>
        </mxCell>
        <mxCell id="E9d8_AmILumTyX3_b7Oe-18" value="" style="endArrow=classic;html=1;entryX=0.51;entryY=0.962;entryDx=0;entryDy=0;entryPerimeter=0;" edge="1" parent="1" target="E9d8_AmILumTyX3_b7Oe-6">
          <mxGeometry width="50" height="50" relative="1" as="geometry">
            <mxPoint x="710" y="1010" as="sourcePoint" />
            <mxPoint x="730" y="990" as="targetPoint" />
            <Array as="points">
              <mxPoint x="710" y="1010" />
            </Array>
          </mxGeometry>
        </mxCell>
        <mxCell id="E9d8_AmILumTyX3_b7Oe-19" value="" style="endArrow=none;html=1;entryX=0.065;entryY=0.304;entryDx=0;entryDy=0;entryPerimeter=0;" edge="1" parent="1" target="E9d8_AmILumTyX3_b7Oe-2">
          <mxGeometry width="50" height="50" relative="1" as="geometry">
            <mxPoint x="-160" y="810" as="sourcePoint" />
            <mxPoint x="178.2" y="760" as="targetPoint" />
            <Array as="points" />
          </mxGeometry>
        </mxCell>
        <mxCell id="E9d8_AmILumTyX3_b7Oe-20" value="" style="endArrow=none;html=1;" edge="1" parent="1">
          <mxGeometry width="50" height="50" relative="1" as="geometry">
            <mxPoint x="370" y="980" as="sourcePoint" />
            <mxPoint x="370" y="810" as="targetPoint" />
          </mxGeometry>
        </mxCell>
        <mxCell id="E9d8_AmILumTyX3_b7Oe-23" value="" style="endArrow=classic;html=1;" edge="1" parent="1">
          <mxGeometry width="50" height="50" relative="1" as="geometry">
            <mxPoint x="139" y="810" as="sourcePoint" />
            <mxPoint x="139" y="860" as="targetPoint" />
            <Array as="points" />
          </mxGeometry>
        </mxCell>
        <mxCell id="E9d8_AmILumTyX3_b7Oe-24" value="" style="endArrow=classic;html=1;" edge="1" parent="1">
          <mxGeometry width="50" height="50" relative="1" as="geometry">
            <mxPoint x="-1" y="810" as="sourcePoint" />
            <mxPoint x="-1" y="860" as="targetPoint" />
            <Array as="points" />
          </mxGeometry>
        </mxCell>
        <mxCell id="E9d8_AmILumTyX3_b7Oe-25" value="" style="endArrow=classic;html=1;" edge="1" parent="1">
          <mxGeometry width="50" height="50" relative="1" as="geometry">
            <mxPoint x="-160" y="810" as="sourcePoint" />
            <mxPoint x="-160" y="860" as="targetPoint" />
            <Array as="points" />
          </mxGeometry>
        </mxCell>
        <mxCell id="E9d8_AmILumTyX3_b7Oe-26" value="" style="endArrow=classic;html=1;entryX=0.4;entryY=0.923;entryDx=0;entryDy=0;entryPerimeter=0;" edge="1" parent="1" target="E9d8_AmILumTyX3_b7Oe-6">
          <mxGeometry width="50" height="50" relative="1" as="geometry">
            <mxPoint x="370" y="980" as="sourcePoint" />
            <mxPoint x="440" y="980" as="targetPoint" />
          </mxGeometry>
        </mxCell>
        <mxCell id="E9d8_AmILumTyX3_b7Oe-27" value="" style="endArrow=classic;html=1;" edge="1" parent="1">
          <mxGeometry width="50" height="50" relative="1" as="geometry">
            <mxPoint x="370" y="970" as="sourcePoint" />
            <mxPoint x="680" y="970" as="targetPoint" />
          </mxGeometry>
        </mxCell>
        <mxCell id="E9d8_AmILumTyX3_b7Oe-28" value="" style="endArrow=classic;html=1;" edge="1" parent="1">
          <mxGeometry width="50" height="50" relative="1" as="geometry">
            <mxPoint x="370" y="955" as="sourcePoint" />
            <mxPoint x="670" y="955" as="targetPoint" />
          </mxGeometry>
        </mxCell>
        <mxCell id="E9d8_AmILumTyX3_b7Oe-33" value="SSH" style="text;html=1;strokeColor=none;fillColor=none;align=center;verticalAlign=middle;whiteSpace=wrap;rounded=0;" vertex="1" parent="1">
          <mxGeometry x="560" y="1020" width="90" height="20" as="geometry" />
        </mxCell>
        <mxCell id="E9d8_AmILumTyX3_b7Oe-36" value="" style="endArrow=none;html=1;" edge="1" parent="1" target="llVI7Hf9OjRL6w-K2cts-1">
          <mxGeometry width="50" height="50" relative="1" as="geometry">
            <mxPoint x="-570" y="1180" as="sourcePoint" />
            <mxPoint x="-640" y="660" as="targetPoint" />
            <Array as="points">
              <mxPoint x="-690" y="660" />
            </Array>
          </mxGeometry>
        </mxCell>
        <mxCell id="E9d8_AmILumTyX3_b7Oe-37" style="edgeStyle=orthogonalEdgeStyle;rounded=0;orthogonalLoop=1;jettySize=auto;html=1;exitX=0.5;exitY=1;exitDx=0;exitDy=0;" edge="1" parent="1" source="llVI7Hf9OjRL6w-K2cts-2" target="llVI7Hf9OjRL6w-K2cts-2">
          <mxGeometry relative="1" as="geometry" />
        </mxCell>
        <mxCell id="E9d8_AmILumTyX3_b7Oe-38" value="" style="endArrow=none;html=1;" edge="1" parent="1">
          <mxGeometry width="50" height="50" relative="1" as="geometry">
            <mxPoint x="-570" y="1180" as="sourcePoint" />
            <mxPoint x="480" y="1174" as="targetPoint" />
          </mxGeometry>
        </mxCell>
        <mxCell id="E9d8_AmILumTyX3_b7Oe-40" value="" style="endArrow=none;html=1;" edge="1" parent="1">
          <mxGeometry width="50" height="50" relative="1" as="geometry">
            <mxPoint x="480" y="1172" as="sourcePoint" />
            <mxPoint x="480" y="955" as="targetPoint" />
          </mxGeometry>
        </mxCell>
        <mxCell id="E9d8_AmILumTyX3_b7Oe-41" value="Availability zone 1( East-US)" style="text;html=1;strokeColor=none;fillColor=none;align=center;verticalAlign=middle;whiteSpace=wrap;rounded=0;" vertex="1" parent="1">
          <mxGeometry x="7.5" y="330" width="172.5" height="20" as="geometry" />
        </mxCell>
        <mxCell id="E9d8_AmILumTyX3_b7Oe-42" value="Availability Zone 2 (West-US)" style="text;html=1;strokeColor=none;fillColor=none;align=center;verticalAlign=middle;whiteSpace=wrap;rounded=0;" vertex="1" parent="1">
          <mxGeometry x="680" y="630" width="190" height="20" as="geometry" />
        </mxCell>
      </root>
    </mxGraphModel>
  </diagram>
</mxfile>
